<svg width="642.601" height="75.201" viewBox="0 0 642.601 75.201" xmlns="http://www.w3.org/2000/svg"><g id="svgGroup" stroke-linecap="round" fill-rule="evenodd" font-size="9pt" stroke="#000" stroke-width="0.25mm" fill="black" style="stroke:#000;stroke-width:0.25mm;fill:black"><path d="M 32.4 44.4 L 32.4 36.9 L 55.9 36.9 L 55.9 74 L 47.5 74 L 47.5 67 A 35.883 35.883 0 0 1 43.122 70.292 A 47.354 47.354 0 0 1 39 72.65 A 23.594 23.594 0 0 1 29.594 75.15 A 28.131 28.131 0 0 1 27.9 75.2 Q 21.8 75.2 16.7 72.8 Q 11.6 70.4 7.9 65.9 Q 4.2 61.4 2.1 55.05 A 40.876 40.876 0 0 1 0.347 46.963 A 52.887 52.887 0 0 1 0 40.8 Q 0 32.4 2.15 25.45 A 37.954 37.954 0 0 1 5.495 17.685 A 32.27 32.27 0 0 1 8.4 13.45 Q 12.5 8.4 18.45 5.6 A 29.262 29.262 0 0 1 27.191 3.101 A 37.251 37.251 0 0 1 32 2.8 A 46.269 46.269 0 0 1 37.801 3.146 Q 40.751 3.519 43.311 4.295 A 28.422 28.422 0 0 1 43.65 4.4 Q 48.7 6 53.2 8.5 L 49.7 16.4 Q 45.5 14.1 41.2 12.6 Q 36.9 11.1 31.5 11.1 A 20.332 20.332 0 0 0 24.325 12.354 A 19.286 19.286 0 0 0 22.8 13 A 19.039 19.039 0 0 0 16.175 18.257 A 22.125 22.125 0 0 0 15.9 18.6 A 24.411 24.411 0 0 0 13.033 23.316 A 32.852 32.852 0 0 0 11.35 27.75 A 37.177 37.177 0 0 0 10.063 33.978 A 50.891 50.891 0 0 0 9.7 40.2 A 45.369 45.369 0 0 0 10.052 45.986 A 33.62 33.62 0 0 0 11.2 51.45 Q 12.7 56.4 15.4 59.85 A 18.128 18.128 0 0 0 21.271 64.809 A 17.714 17.714 0 0 0 21.85 65.1 Q 25.6 66.9 30.1 66.9 Q 32.9 66.9 35.4 66.25 A 24.422 24.422 0 0 0 38.787 65.109 A 21.248 21.248 0 0 0 40 64.55 Q 42.1 63.5 43.85 62.25 A 26.8 26.8 0 0 0 45.677 60.828 A 21.171 21.171 0 0 0 46.9 59.7 L 46.9 44.4 L 32.4 44.4 Z M 179.6 68.1 L 184.4 60.1 Q 188 63.1 192.5 65 A 23.348 23.348 0 0 0 197.871 66.51 A 32.118 32.118 0 0 0 203 66.9 A 27.981 27.981 0 0 0 207.548 66.554 Q 209.97 66.154 211.932 65.293 A 13.701 13.701 0 0 0 214.4 63.9 Q 218.449 61.008 218.595 56.166 A 12.116 12.116 0 0 0 218.6 55.8 Q 218.6 53.7 218 51.9 A 7.214 7.214 0 0 0 217.038 50.03 Q 216.471 49.223 215.65 48.45 Q 214.379 47.251 212.368 46.052 A 33.644 33.644 0 0 0 210.75 45.15 A 51.221 51.221 0 0 0 208.247 43.932 Q 205.803 42.817 202.6 41.6 Q 198.466 39.992 195.299 38.414 A 55.037 55.037 0 0 1 193.45 37.45 A 29.576 29.576 0 0 1 190.447 35.58 Q 188.694 34.328 187.4 32.95 A 15.293 15.293 0 0 1 184.787 29.214 A 13.936 13.936 0 0 1 184.1 27.55 A 18.339 18.339 0 0 1 183.306 24.069 A 24.866 24.866 0 0 1 183.1 20.8 Q 183.1 17.1 184.65 13.8 A 15.944 15.944 0 0 1 188.692 8.517 A 18.684 18.684 0 0 1 189.25 8.05 A 20.424 20.424 0 0 1 193.366 5.511 A 26.899 26.899 0 0 1 196.75 4.2 A 29.368 29.368 0 0 1 201.831 3.108 A 39.853 39.853 0 0 1 206.9 2.8 A 52.816 52.816 0 0 1 212.602 3.093 A 38.808 38.808 0 0 1 218 4.05 Q 222.9 5.3 227.7 7.6 L 224.2 15.7 A 31.496 31.496 0 0 0 220.075 13.681 A 41.686 41.686 0 0 0 216.25 12.35 Q 211.7 11 206.7 11 A 27.711 27.711 0 0 0 202.671 11.275 Q 198.853 11.837 196.3 13.55 A 9.496 9.496 0 0 0 194.079 15.571 A 7.461 7.461 0 0 0 192.5 20.3 A 12.395 12.395 0 0 0 192.629 22.132 A 9.192 9.192 0 0 0 193.05 23.85 A 5.878 5.878 0 0 0 193.808 25.281 Q 194.228 25.874 194.819 26.451 A 11.219 11.219 0 0 0 195.25 26.85 Q 196.446 27.901 198.325 28.978 A 34.591 34.591 0 0 0 199.85 29.8 A 46.93 46.93 0 0 0 202.109 30.867 Q 204.485 31.919 207.7 33.1 A 89.068 89.068 0 0 1 212.116 34.904 Q 215.125 36.234 217.5 37.6 A 33.937 33.937 0 0 1 220.591 39.594 Q 222.092 40.69 223.268 41.847 A 19.029 19.029 0 0 1 223.9 42.5 A 17.193 17.193 0 0 1 226.324 45.817 A 14.737 14.737 0 0 1 227.35 48.1 A 18.723 18.723 0 0 1 228.298 52.509 A 22.892 22.892 0 0 1 228.4 54.7 Q 228.4 59.6 226.5 63.4 Q 224.6 67.2 221.25 69.85 A 21.611 21.611 0 0 1 216.073 72.852 A 26.983 26.983 0 0 1 213.2 73.85 A 34.832 34.832 0 0 1 206.36 75.068 A 41.937 41.937 0 0 1 203 75.2 Q 195.7 75.2 189.7 73.25 A 38.206 38.206 0 0 1 184.334 71.068 A 28.433 28.433 0 0 1 179.6 68.1 Z M 595.8 67.5 L 593.9 74.5 Q 589.1 74.5 586.3 72.6 A 9.552 9.552 0 0 1 582.829 68.287 A 12.398 12.398 0 0 1 582.4 67.1 Q 578.9 70.7 574.35 72.95 Q 569.8 75.2 564.4 75.2 Q 561 75.2 557.85 74.15 Q 554.7 73.1 552.25 70.8 Q 549.8 68.5 548.35 64.8 Q 546.9 61.1 546.9 55.8 L 546.9 22 L 555.9 22 L 555.9 54.6 Q 555.9 58.603 556.999 61.379 A 10.233 10.233 0 0 0 558.45 63.95 A 8.189 8.189 0 0 0 563.229 66.898 A 12.854 12.854 0 0 0 566.1 67.2 Q 570.3 67.2 574.1 65.55 Q 577.9 63.9 580.9 61.1 L 580.9 22 L 589.9 22 L 589.9 60.5 A 15.822 15.822 0 0 0 589.958 61.897 Q 590.07 63.159 590.4 64.05 A 7.037 7.037 0 0 0 590.837 65.013 Q 591.118 65.522 591.462 65.906 A 3.906 3.906 0 0 0 591.7 66.15 Q 592.5 66.9 593.6 67.2 Q 594.7 67.5 595.8 67.5 Z M 304.5 22 L 304.5 30.7 Q 307.3 26.5 311.65 23.65 A 17.316 17.316 0 0 1 318.756 21.025 A 22.629 22.629 0 0 1 322 20.8 A 23.225 23.225 0 0 1 327.066 21.318 Q 332.16 22.456 335.15 26.1 Q 339.275 31.126 339.489 39.209 A 33.764 33.764 0 0 1 339.5 40.1 L 339.5 74 L 330.5 74 L 330.5 41.1 Q 330.5 36.744 328.982 33.761 A 10.688 10.688 0 0 0 327.9 32.05 A 8.461 8.461 0 0 0 321.955 28.783 A 12.388 12.388 0 0 0 320.5 28.7 Q 318.2 28.7 316 29.55 A 18.175 18.175 0 0 0 312.298 31.513 A 20.625 20.625 0 0 0 311.75 31.9 Q 309.7 33.4 307.95 35.4 Q 306.2 37.4 304.8 39.6 L 304.8 74 L 295.8 74 L 295.8 22 L 304.5 22 Z M 350.5 69.8 L 354.3 62.3 A 17.402 17.402 0 0 0 357.653 64.603 A 23.322 23.322 0 0 0 360.85 66 A 24.791 24.791 0 0 0 368.323 67.383 A 28.367 28.367 0 0 0 369.3 67.4 Q 374.693 67.4 377.535 65.685 A 7.738 7.738 0 0 0 377.75 65.55 Q 380.6 63.7 380.6 60.8 A 7.211 7.211 0 0 0 380.216 58.432 A 6.796 6.796 0 0 0 380.05 58 A 5.377 5.377 0 0 0 379.337 56.803 Q 378.95 56.304 378.42 55.821 A 10.185 10.185 0 0 0 378.05 55.5 A 12.59 12.59 0 0 0 376.815 54.607 Q 376.131 54.169 375.302 53.737 A 27.422 27.422 0 0 0 374.1 53.15 Q 372.421 52.377 370.064 51.492 A 115.589 115.589 0 0 0 367.6 50.6 A 47.106 47.106 0 0 1 363.346 48.945 Q 359.075 47.022 356.6 44.65 A 11.347 11.347 0 0 1 353.37 38.736 A 16.941 16.941 0 0 1 353 35.1 Q 353 32.1 354.35 29.5 A 13.242 13.242 0 0 1 357.336 25.704 A 15.791 15.791 0 0 1 358.25 24.95 A 17.33 17.33 0 0 1 361.666 22.934 A 22.664 22.664 0 0 1 364.45 21.9 A 24.963 24.963 0 0 1 368.592 21.046 A 34.316 34.316 0 0 1 372.8 20.8 Q 377.452 20.8 381.064 21.674 A 24.48 24.48 0 0 1 381.75 21.85 A 38.541 38.541 0 0 1 386.058 23.291 A 31.513 31.513 0 0 1 388.7 24.5 L 386.2 31.9 Q 383.5 30.3 380.05 29.3 A 25.024 25.024 0 0 0 375.567 28.453 A 31.837 31.837 0 0 0 372.4 28.3 A 20.632 20.632 0 0 0 369.464 28.495 Q 366.378 28.94 364.5 30.4 A 9.322 9.322 0 0 0 363.143 31.673 Q 362.44 32.492 362.105 33.365 A 4.529 4.529 0 0 0 361.8 35 A 5.568 5.568 0 0 0 361.994 36.488 A 4.93 4.93 0 0 0 362.25 37.2 Q 362.625 38.032 363.517 38.794 A 7.753 7.753 0 0 0 363.9 39.1 Q 365.1 40 367.1 40.9 A 38.11 38.11 0 0 0 368.741 41.589 Q 370.225 42.175 372.1 42.8 Q 375.852 44.102 378.724 45.432 A 45.049 45.049 0 0 1 380.4 46.25 A 27.212 27.212 0 0 1 383.115 47.841 Q 384.415 48.713 385.441 49.659 A 15.68 15.68 0 0 1 385.9 50.1 A 13.836 13.836 0 0 1 387.838 52.502 A 11.394 11.394 0 0 1 388.9 54.65 A 14.613 14.613 0 0 1 389.694 58.102 A 18.255 18.255 0 0 1 389.8 60.1 A 14.031 14.031 0 0 1 389.272 64.009 A 12.235 12.235 0 0 1 388.3 66.4 Q 386.8 69.2 384.1 71.15 A 17.953 17.953 0 0 1 380.594 73.104 A 23.774 23.774 0 0 1 377.55 74.15 Q 373.7 75.2 369 75.2 A 41.103 41.103 0 0 1 363.493 74.848 A 30.514 30.514 0 0 1 358.3 73.7 A 30.72 30.72 0 0 1 354.494 72.215 Q 352.525 71.283 350.944 70.133 A 18.536 18.536 0 0 1 350.5 69.8 Z M 603.3 69.8 L 607.1 62.3 A 17.402 17.402 0 0 0 610.453 64.603 A 23.322 23.322 0 0 0 613.65 66 A 24.791 24.791 0 0 0 621.123 67.383 A 28.367 28.367 0 0 0 622.1 67.4 Q 627.493 67.4 630.335 65.685 A 7.738 7.738 0 0 0 630.55 65.55 Q 633.4 63.7 633.4 60.8 A 7.211 7.211 0 0 0 633.016 58.432 A 6.796 6.796 0 0 0 632.85 58 A 5.377 5.377 0 0 0 632.137 56.803 Q 631.75 56.304 631.22 55.821 A 10.185 10.185 0 0 0 630.85 55.5 A 12.59 12.59 0 0 0 629.615 54.607 Q 628.931 54.169 628.102 53.737 A 27.422 27.422 0 0 0 626.9 53.15 Q 625.221 52.377 622.864 51.492 A 115.589 115.589 0 0 0 620.4 50.6 A 47.106 47.106 0 0 1 616.146 48.945 Q 611.875 47.022 609.4 44.65 A 11.347 11.347 0 0 1 606.17 38.736 A 16.941 16.941 0 0 1 605.8 35.1 Q 605.8 32.1 607.15 29.5 A 13.242 13.242 0 0 1 610.136 25.704 A 15.791 15.791 0 0 1 611.05 24.95 A 17.33 17.33 0 0 1 614.466 22.934 A 22.664 22.664 0 0 1 617.25 21.9 A 24.963 24.963 0 0 1 621.392 21.046 A 34.316 34.316 0 0 1 625.6 20.8 Q 630.252 20.8 633.864 21.674 A 24.48 24.48 0 0 1 634.55 21.85 A 38.541 38.541 0 0 1 638.858 23.291 A 31.513 31.513 0 0 1 641.5 24.5 L 639 31.9 Q 636.3 30.3 632.85 29.3 A 25.024 25.024 0 0 0 628.367 28.453 A 31.837 31.837 0 0 0 625.2 28.3 A 20.632 20.632 0 0 0 622.264 28.495 Q 619.178 28.94 617.3 30.4 A 9.322 9.322 0 0 0 615.943 31.673 Q 615.24 32.492 614.905 33.365 A 4.529 4.529 0 0 0 614.6 35 A 5.568 5.568 0 0 0 614.794 36.488 A 4.93 4.93 0 0 0 615.05 37.2 Q 615.425 38.032 616.317 38.794 A 7.753 7.753 0 0 0 616.7 39.1 Q 617.9 40 619.9 40.9 A 38.11 38.11 0 0 0 621.541 41.589 Q 623.025 42.175 624.9 42.8 Q 628.652 44.102 631.524 45.432 A 45.049 45.049 0 0 1 633.2 46.25 A 27.212 27.212 0 0 1 635.915 47.841 Q 637.215 48.713 638.241 49.659 A 15.68 15.68 0 0 1 638.7 50.1 A 13.836 13.836 0 0 1 640.638 52.502 A 11.394 11.394 0 0 1 641.7 54.65 A 14.613 14.613 0 0 1 642.494 58.102 A 18.255 18.255 0 0 1 642.6 60.1 A 14.031 14.031 0 0 1 642.072 64.009 A 12.235 12.235 0 0 1 641.1 66.4 Q 639.6 69.2 636.9 71.15 A 17.953 17.953 0 0 1 633.394 73.104 A 23.774 23.774 0 0 1 630.35 74.15 Q 626.5 75.2 621.8 75.2 A 41.103 41.103 0 0 1 616.293 74.848 A 30.514 30.514 0 0 1 611.1 73.7 A 30.72 30.72 0 0 1 607.294 72.215 Q 605.325 71.283 603.744 70.133 A 18.536 18.536 0 0 1 603.3 69.8 Z M 112.5 51.7 L 76.1 51.7 A 24.088 24.088 0 0 0 77.239 56.725 Q 78.575 60.538 81.2 63.1 Q 85.4 67.2 92.3 67.2 Q 96.8 67.2 100.4 66.25 Q 104 65.3 107.3 63.8 L 109.4 71.5 A 35.406 35.406 0 0 1 104.581 73.342 A 44.267 44.267 0 0 1 101.3 74.2 A 40.711 40.711 0 0 1 96.209 74.98 A 54.607 54.607 0 0 1 91.2 75.2 A 29.178 29.178 0 0 1 85.404 74.647 A 23.608 23.608 0 0 1 81.1 73.35 Q 76.6 71.5 73.45 68.05 A 22.127 22.127 0 0 1 69.804 62.55 A 27.574 27.574 0 0 1 68.6 59.55 A 31.581 31.581 0 0 1 67.249 53.593 A 42.813 42.813 0 0 1 66.9 48 A 34.878 34.878 0 0 1 67.704 40.403 A 30.597 30.597 0 0 1 68.6 37.2 A 27.699 27.699 0 0 1 71.414 31.251 A 24.152 24.152 0 0 1 73.4 28.55 Q 76.5 24.9 80.8 22.85 Q 85.1 20.8 90.4 20.8 A 27.908 27.908 0 0 1 95.304 21.211 A 20.619 20.619 0 0 1 100.2 22.7 Q 104.4 24.6 107.2 27.9 Q 110 31.2 111.4 35.6 A 30.348 30.348 0 0 1 112.797 44.442 A 34.055 34.055 0 0 1 112.8 44.9 A 75.204 75.204 0 0 1 112.51 51.597 A 69.426 69.426 0 0 1 112.5 51.7 Z M 283.5 51.7 L 247.1 51.7 A 24.088 24.088 0 0 0 248.239 56.725 Q 249.575 60.538 252.2 63.1 Q 256.4 67.2 263.3 67.2 Q 267.8 67.2 271.4 66.25 Q 275 65.3 278.3 63.8 L 280.4 71.5 A 35.406 35.406 0 0 1 275.581 73.342 A 44.267 44.267 0 0 1 272.3 74.2 A 40.711 40.711 0 0 1 267.209 74.98 A 54.607 54.607 0 0 1 262.2 75.2 A 29.178 29.178 0 0 1 256.404 74.647 A 23.608 23.608 0 0 1 252.1 73.35 Q 247.6 71.5 244.45 68.05 A 22.127 22.127 0 0 1 240.804 62.55 A 27.574 27.574 0 0 1 239.6 59.55 A 31.581 31.581 0 0 1 238.249 53.593 A 42.813 42.813 0 0 1 237.9 48 A 34.878 34.878 0 0 1 238.704 40.403 A 30.597 30.597 0 0 1 239.6 37.2 A 27.699 27.699 0 0 1 242.414 31.251 A 24.152 24.152 0 0 1 244.4 28.55 Q 247.5 24.9 251.8 22.85 Q 256.1 20.8 261.4 20.8 A 27.908 27.908 0 0 1 266.304 21.211 A 20.619 20.619 0 0 1 271.2 22.7 Q 275.4 24.6 278.2 27.9 Q 281 31.2 282.4 35.6 A 30.348 30.348 0 0 1 283.797 44.442 A 34.055 34.055 0 0 1 283.8 44.9 A 75.204 75.204 0 0 1 283.51 51.597 A 69.426 69.426 0 0 1 283.5 51.7 Z M 443.9 51.7 L 407.5 51.7 A 24.088 24.088 0 0 0 408.639 56.725 Q 409.975 60.538 412.6 63.1 Q 416.8 67.2 423.7 67.2 Q 428.2 67.2 431.8 66.25 Q 435.4 65.3 438.7 63.8 L 440.8 71.5 A 35.406 35.406 0 0 1 435.981 73.342 A 44.267 44.267 0 0 1 432.7 74.2 A 40.711 40.711 0 0 1 427.609 74.98 A 54.607 54.607 0 0 1 422.6 75.2 A 29.178 29.178 0 0 1 416.804 74.647 A 23.608 23.608 0 0 1 412.5 73.35 Q 408 71.5 404.85 68.05 A 22.127 22.127 0 0 1 401.204 62.55 A 27.574 27.574 0 0 1 400 59.55 A 31.581 31.581 0 0 1 398.649 53.593 A 42.813 42.813 0 0 1 398.3 48 A 34.878 34.878 0 0 1 399.104 40.403 A 30.597 30.597 0 0 1 400 37.2 A 27.699 27.699 0 0 1 402.814 31.251 A 24.152 24.152 0 0 1 404.8 28.55 Q 407.9 24.9 412.2 22.85 Q 416.5 20.8 421.8 20.8 A 27.908 27.908 0 0 1 426.704 21.211 A 20.619 20.619 0 0 1 431.6 22.7 Q 435.8 24.6 438.6 27.9 Q 441.4 31.2 442.8 35.6 A 30.348 30.348 0 0 1 444.197 44.442 A 34.055 34.055 0 0 1 444.2 44.9 A 75.204 75.204 0 0 1 443.91 51.597 A 69.426 69.426 0 0 1 443.9 51.7 Z M 457.2 74 L 457.2 4.2 Q 461.4 3.7 466.25 3.45 A 189.812 189.812 0 0 1 473.179 3.224 A 222.326 222.326 0 0 1 476.5 3.2 Q 483 3.2 488.1 4.8 Q 493.2 6.4 496.7 9.2 Q 500.2 12 502 15.95 A 20.294 20.294 0 0 1 503.798 24.177 A 23.338 23.338 0 0 1 503.8 24.5 A 24.885 24.885 0 0 1 503.229 29.943 A 19.97 19.97 0 0 1 501.65 34.45 Q 499.5 38.8 495.65 41.8 A 25.074 25.074 0 0 1 489.93 45.113 A 31.482 31.482 0 0 1 486.4 46.35 A 39.641 39.641 0 0 1 479.221 47.682 A 49.664 49.664 0 0 1 474.5 47.9 Q 470.3 47.9 466.7 47.6 L 466.7 74 L 457.2 74 Z M 522.8 0 L 522.8 56.8 A 20.644 20.644 0 0 0 522.988 59.688 Q 523.451 62.952 525.05 64.8 A 7.363 7.363 0 0 0 529.634 67.276 A 10.724 10.724 0 0 0 531.3 67.4 Q 533.2 67.4 535 66.95 Q 536.8 66.5 538.2 65.9 L 540.4 73.2 Q 539.001 73.822 537.088 74.323 A 34.978 34.978 0 0 1 535.95 74.6 A 23.816 23.816 0 0 1 532.795 75.085 A 30.514 30.514 0 0 1 530.1 75.2 A 21.419 21.419 0 0 1 525.99 74.819 A 18.058 18.058 0 0 1 523.65 74.2 Q 520.7 73.2 518.5 71.1 A 13.281 13.281 0 0 1 516.022 67.827 A 16.994 16.994 0 0 1 515.05 65.7 Q 513.8 62.4 513.8 57.7 L 513.8 0 L 522.8 0 Z M 121.365 41.659 A 34.196 34.196 0 0 0 120.8 48 A 34.702 34.702 0 0 0 120.93 51.027 A 28.722 28.722 0 0 0 122.75 59 A 29.451 29.451 0 0 0 123.261 60.228 A 25.437 25.437 0 0 0 128.15 67.6 Q 131.6 71.2 136.35 73.2 A 24.648 24.648 0 0 0 139.402 74.255 A 27.492 27.492 0 0 0 146.7 75.2 A 30.449 30.449 0 0 0 147.725 75.183 A 26.432 26.432 0 0 0 156.95 73.25 Q 161.7 71.3 165.2 67.7 A 23.825 23.825 0 0 0 167.047 65.56 A 26.161 26.161 0 0 0 170.65 59.05 A 27.814 27.814 0 0 0 171.983 54.411 A 34.074 34.074 0 0 0 172.6 47.8 A 34.924 34.924 0 0 0 172.364 43.679 A 27.811 27.811 0 0 0 170.6 36.6 A 28.718 28.718 0 0 0 169.939 35.074 A 24.42 24.42 0 0 0 165.1 28.1 Q 161.6 24.6 156.85 22.7 A 26.059 26.059 0 0 0 156.254 22.47 A 27.19 27.19 0 0 0 146.7 20.8 A 31.154 31.154 0 0 0 145.506 20.823 A 26.981 26.981 0 0 0 136.45 22.7 Q 131.7 24.6 128.25 28.1 Q 124.8 31.6 122.8 36.65 A 27.311 27.311 0 0 0 121.365 41.659 Z M 163.4 48 Q 163.4 44.1 162.15 40.6 A 19.563 19.563 0 0 0 159.775 35.945 A 17.715 17.715 0 0 0 158.65 34.5 Q 156.4 31.9 153.35 30.35 Q 150.3 28.8 146.7 28.8 A 19.249 19.249 0 0 0 141.474 29.472 A 14.037 14.037 0 0 0 134.4 34 A 17.878 17.878 0 0 0 130.727 41.374 Q 130 44.306 130 47.8 Q 130 51.7 131.25 55.25 A 20.131 20.131 0 0 0 133.564 59.888 A 18.151 18.151 0 0 0 134.75 61.45 Q 137 64.1 140.05 65.65 Q 143.1 67.2 146.7 67.2 A 18.689 18.689 0 0 0 150.618 66.805 A 15.186 15.186 0 0 0 153.7 65.8 Q 156.8 64.4 158.95 61.85 A 17.366 17.366 0 0 0 161.699 57.286 A 20.701 20.701 0 0 0 162.25 55.8 A 22.798 22.798 0 0 0 163.235 51.144 A 29.007 29.007 0 0 0 163.4 48 Z M 466.7 11.6 L 466.7 39.5 Q 467.8 39.637 469.208 39.751 A 95.16 95.16 0 0 0 470.55 39.85 Q 472.484 39.979 474.898 39.997 A 106.907 106.907 0 0 0 475.7 40 Q 481.8 40 485.993 38.186 A 15.072 15.072 0 0 0 489.55 36.05 A 12.849 12.849 0 0 0 494.35 26.652 A 17.917 17.917 0 0 0 494.4 25.3 A 14.619 14.619 0 0 0 493.662 20.549 A 12.131 12.131 0 0 0 489.75 15 Q 486.108 12.023 479.919 11.378 A 34.952 34.952 0 0 0 476.3 11.2 A 131.125 131.125 0 0 0 473.043 11.239 A 109.939 109.939 0 0 0 471.2 11.3 A 91.274 91.274 0 0 0 468.318 11.464 A 75.041 75.041 0 0 0 466.7 11.6 Z M 76 44.4 L 104.5 44.4 A 24.355 24.355 0 0 0 104.096 39.815 Q 103.6 37.231 102.496 35.207 A 12.422 12.422 0 0 0 100.7 32.7 A 12.488 12.488 0 0 0 93.74 28.924 A 18.395 18.395 0 0 0 90.2 28.6 Q 84.3 28.6 80.55 32.6 A 14.739 14.739 0 0 0 77.758 37.005 Q 76.933 38.961 76.453 41.361 A 32.287 32.287 0 0 0 76 44.4 Z M 247 44.4 L 275.5 44.4 A 24.355 24.355 0 0 0 275.096 39.815 Q 274.6 37.231 273.496 35.207 A 12.422 12.422 0 0 0 271.7 32.7 A 12.488 12.488 0 0 0 264.74 28.924 A 18.395 18.395 0 0 0 261.2 28.6 Q 255.3 28.6 251.55 32.6 A 14.739 14.739 0 0 0 248.758 37.005 Q 247.933 38.961 247.453 41.361 A 32.287 32.287 0 0 0 247 44.4 Z M 407.4 44.4 L 435.9 44.4 A 24.355 24.355 0 0 0 435.496 39.815 Q 435 37.231 433.896 35.207 A 12.422 12.422 0 0 0 432.1 32.7 A 12.488 12.488 0 0 0 425.14 28.924 A 18.395 18.395 0 0 0 421.6 28.6 Q 415.7 28.6 411.95 32.6 A 14.739 14.739 0 0 0 409.158 37.005 Q 408.333 38.961 407.853 41.361 A 32.287 32.287 0 0 0 407.4 44.4 Z" vector-effect="non-scaling-stroke"/></g></svg>