<svg width="724.225" height="185.346" viewBox="0 0 724.225 185.346" xmlns="http://www.w3.org/2000/svg"><g id="svgGroup" stroke-linecap="round" fill-rule="evenodd" font-size="9pt" stroke="#000" stroke-width="0.25mm" fill="black" style="stroke:#000;stroke-width:0.25mm;fill:black"><path d="M 82.945 106.497 L 82.945 87.297 L 143.105 87.297 L 143.105 182.273 L 121.601 182.273 L 121.601 164.353 A 91.86 91.86 0 0 1 110.393 172.779 A 121.226 121.226 0 0 1 99.841 178.817 A 60.4 60.4 0 0 1 75.761 185.216 A 72.015 72.015 0 0 1 71.425 185.345 Q 55.809 185.345 42.753 179.201 Q 29.697 173.057 20.225 161.537 Q 10.753 150.017 5.377 133.761 A 104.644 104.644 0 0 1 0.888 113.058 A 135.39 135.39 0 0 1 0.001 97.281 Q 0.001 75.777 5.505 57.985 A 97.161 97.161 0 0 1 14.067 38.107 A 82.61 82.61 0 0 1 21.505 27.265 Q 32.001 14.337 47.233 7.169 A 74.91 74.91 0 0 1 69.608 0.772 A 95.362 95.362 0 0 1 81.921 0.001 A 118.448 118.448 0 0 1 96.772 0.886 Q 104.323 1.841 110.876 3.827 A 72.761 72.761 0 0 1 111.745 4.097 Q 124.673 8.193 136.193 14.593 L 127.233 34.817 Q 116.481 28.929 105.473 25.089 A 67.697 67.697 0 0 0 91.408 21.882 A 88.186 88.186 0 0 0 80.641 21.249 Q 68.609 21.249 58.369 26.113 A 48.74 48.74 0 0 0 41.407 39.571 A 56.638 56.638 0 0 0 40.705 40.449 Q 33.281 49.921 29.057 63.873 Q 24.833 77.825 24.833 95.745 A 116.143 116.143 0 0 0 25.734 110.558 A 86.066 86.066 0 0 0 28.673 124.545 Q 32.513 137.217 39.425 146.049 A 46.409 46.409 0 0 0 54.453 158.743 A 45.349 45.349 0 0 0 55.937 159.489 Q 65.537 164.097 77.057 164.097 Q 84.225 164.097 90.625 162.433 Q 97.025 160.769 102.401 158.081 Q 107.777 155.393 112.257 152.193 Q 116.737 148.993 120.065 145.665 L 120.065 106.497 L 82.945 106.497 Z M 459.777 167.169 L 472.065 146.689 Q 481.281 154.369 492.801 159.233 A 59.772 59.772 0 0 0 506.549 163.098 A 82.222 82.222 0 0 0 519.681 164.097 A 71.631 71.631 0 0 0 531.322 163.21 Q 537.524 162.187 542.545 159.984 A 35.073 35.073 0 0 0 548.865 156.417 Q 559.617 148.737 559.617 135.681 A 33.132 33.132 0 0 0 558.955 128.955 A 28.653 28.653 0 0 0 558.081 125.697 Q 556.545 121.089 552.065 116.865 Q 548.81 113.796 543.663 110.727 A 86.129 86.129 0 0 0 539.521 108.417 Q 534.04 105.546 526.371 102.379 A 292.299 292.299 0 0 0 518.657 99.329 Q 508.073 95.213 499.965 91.172 A 140.896 140.896 0 0 1 495.233 88.705 Q 485.633 83.457 479.745 77.185 A 39.15 39.15 0 0 1 473.055 67.62 A 35.677 35.677 0 0 1 471.297 63.361 A 46.948 46.948 0 0 1 469.263 54.45 A 63.658 63.658 0 0 1 468.737 46.081 Q 468.737 36.609 472.705 28.161 A 40.816 40.816 0 0 1 483.051 14.636 A 47.832 47.832 0 0 1 484.481 13.441 Q 492.289 7.169 503.681 3.585 Q 515.073 0.001 529.665 0.001 A 135.208 135.208 0 0 1 544.26 0.751 A 99.347 99.347 0 0 1 558.081 3.201 Q 570.625 6.401 582.913 12.289 L 573.953 33.025 A 80.629 80.629 0 0 0 563.391 27.857 A 106.716 106.716 0 0 0 553.601 24.449 Q 541.953 20.993 529.153 20.993 A 70.94 70.94 0 0 0 518.837 21.695 Q 509.065 23.135 502.529 27.521 A 24.31 24.31 0 0 0 496.842 32.695 A 19.099 19.099 0 0 0 492.801 44.801 A 31.731 31.731 0 0 0 493.131 49.49 A 23.533 23.533 0 0 0 494.209 53.889 A 15.047 15.047 0 0 0 496.148 57.552 Q 497.223 59.07 498.737 60.547 A 28.72 28.72 0 0 0 499.841 61.569 Q 502.903 64.259 507.713 67.017 A 88.554 88.554 0 0 0 511.617 69.121 A 120.14 120.14 0 0 0 517.399 71.851 Q 520.44 73.198 524.018 74.627 A 295.579 295.579 0 0 0 531.713 77.569 A 228.014 228.014 0 0 1 543.016 82.187 Q 548.554 84.635 553.252 87.129 A 120.161 120.161 0 0 1 556.801 89.089 A 86.878 86.878 0 0 1 564.712 94.193 Q 568.556 96.999 571.565 99.961 A 48.714 48.714 0 0 1 573.185 101.633 A 44.014 44.014 0 0 1 579.39 110.125 A 37.727 37.727 0 0 1 582.017 115.969 Q 584.705 123.649 584.705 132.865 A 55.158 55.158 0 0 1 583.412 145.052 A 44.303 44.303 0 0 1 579.841 155.137 Q 574.977 164.865 566.401 171.649 A 55.325 55.325 0 0 1 553.146 179.333 A 69.076 69.076 0 0 1 545.793 181.889 Q 533.761 185.345 519.681 185.345 A 121.259 121.259 0 0 1 499.776 183.776 A 97.405 97.405 0 0 1 485.633 180.353 A 97.807 97.807 0 0 1 471.894 174.766 A 72.788 72.788 0 0 1 459.777 167.169 Z M 288.001 125.185 L 194.817 125.185 Q 196.963 142.595 206.442 152.895 A 38.35 38.35 0 0 0 207.873 154.369 A 36.208 36.208 0 0 0 227.393 164.124 A 51.254 51.254 0 0 0 236.289 164.865 Q 247.809 164.865 257.025 162.433 Q 266.241 160.001 274.689 156.161 L 280.065 175.873 Q 270.849 180.225 259.329 182.785 Q 247.809 185.345 233.473 185.345 A 74.696 74.696 0 0 1 218.635 183.928 A 60.437 60.437 0 0 1 207.617 180.609 Q 196.097 175.873 188.033 167.041 Q 179.969 158.209 175.617 145.281 A 80.847 80.847 0 0 1 172.158 130.03 A 109.601 109.601 0 0 1 171.265 115.713 Q 171.265 100.865 175.617 88.065 A 70.909 70.909 0 0 1 182.82 72.835 A 61.83 61.83 0 0 1 187.905 65.921 Q 195.841 56.577 206.849 51.329 A 54.286 54.286 0 0 1 225.51 46.341 A 66.046 66.046 0 0 1 231.425 46.081 A 71.446 71.446 0 0 1 243.978 47.132 A 52.786 52.786 0 0 1 256.513 50.945 Q 267.265 55.809 274.433 64.257 A 56.178 56.178 0 0 1 284.663 82.399 A 64.547 64.547 0 0 1 285.185 83.969 Q 288.769 95.233 288.769 107.777 A 192.521 192.521 0 0 1 288.025 124.921 A 177.523 177.523 0 0 1 288.001 125.185 Z M 310.694 99.48 A 87.543 87.543 0 0 0 309.249 115.713 A 88.838 88.838 0 0 0 309.581 123.462 A 73.528 73.528 0 0 0 314.241 143.873 Q 319.233 156.673 328.065 165.889 Q 336.897 175.105 349.057 180.225 Q 361.217 185.345 375.553 185.345 Q 389.633 185.345 401.793 180.353 Q 413.953 175.361 422.913 166.145 Q 431.873 156.929 436.865 144.001 Q 441.857 131.073 441.857 115.201 Q 441.857 99.329 436.737 86.529 A 73.519 73.519 0 0 0 435.043 82.622 A 62.516 62.516 0 0 0 422.657 64.769 Q 413.697 55.809 401.537 50.945 Q 389.377 46.081 375.553 46.081 A 79.755 79.755 0 0 0 372.496 46.139 A 69.072 69.072 0 0 0 349.313 50.945 Q 337.153 55.809 328.321 64.769 Q 319.489 73.729 314.369 86.657 A 69.916 69.916 0 0 0 310.694 99.48 Z M 724.225 104.449 L 685.313 104.449 L 685.313 146.177 L 663.553 146.177 L 663.553 104.449 L 624.385 104.449 L 624.385 84.481 L 663.553 84.481 L 663.553 42.753 L 685.313 42.753 L 685.313 84.481 L 724.225 84.481 L 724.225 104.449 Z M 418.305 115.713 Q 418.305 105.729 415.105 96.769 A 50.082 50.082 0 0 0 409.024 84.851 A 45.35 45.35 0 0 0 406.145 81.153 Q 400.385 74.497 392.577 70.529 Q 384.769 66.561 375.553 66.561 A 49.277 49.277 0 0 0 362.174 68.28 A 35.934 35.934 0 0 0 344.065 79.873 Q 333.23 92.678 332.817 113.536 A 84.147 84.147 0 0 0 332.801 115.201 Q 332.801 125.185 336.001 134.273 A 51.537 51.537 0 0 0 341.923 146.146 A 46.466 46.466 0 0 0 344.961 150.145 Q 350.721 156.929 358.529 160.897 Q 366.337 164.865 375.553 164.865 Q 385.537 164.865 393.473 161.281 Q 401.409 157.697 406.913 151.169 Q 412.417 144.641 415.361 135.681 A 58.364 58.364 0 0 0 417.882 123.761 A 74.259 74.259 0 0 0 418.305 115.713 Z M 194.561 106.497 L 267.521 106.497 A 62.349 62.349 0 0 0 266.486 94.758 Q 265.217 88.143 262.39 82.962 A 31.801 31.801 0 0 0 257.793 76.545 A 31.97 31.97 0 0 0 239.974 66.879 A 47.091 47.091 0 0 0 230.913 66.049 Q 215.809 66.049 206.209 76.289 A 37.731 37.731 0 0 0 199.06 87.566 Q 196.948 92.573 195.719 98.716 A 82.654 82.654 0 0 0 194.561 106.497 Z" vector-effect="non-scaling-stroke"/></g></svg>